<mxfile host="Electron" agent="Mozilla/5.0 (Windows NT 10.0; Win64; x64) AppleWebKit/537.36 (KHTML, like Gecko) draw.io/24.7.5 Chrome/126.0.6478.183 Electron/31.3.0 Safari/537.36" version="24.7.5" pages="2">
  <diagram name="Page-1" id="S1CCMp0fjU3EiBpxLUwO">
    <mxGraphModel dx="1888" dy="440" grid="1" gridSize="10" guides="1" tooltips="1" connect="1" arrows="1" fold="1" page="1" pageScale="1" pageWidth="850" pageHeight="1100" math="0" shadow="0">
      <root>
        <mxCell id="0" />
        <mxCell id="1" parent="0" />
        <mxCell id="9xgWKT3Bm4Sd7fR4F6-5-1" value="&lt;font style=&quot;font-size: 20px;&quot;&gt;&lt;i&gt;&lt;b&gt;apiVersion: v1&lt;br&gt;&lt;br&gt;kind: Pod&lt;br&gt;&lt;br&gt;metadata:&lt;/b&gt;&lt;/i&gt;&lt;/font&gt;&lt;div&gt;&lt;font style=&quot;font-size: 20px;&quot;&gt;&lt;i&gt;&lt;b&gt;&amp;nbsp; name: serverpod-withfile&lt;br&gt;&lt;br&gt;spec:&lt;br&gt;&amp;nbsp; containers:&lt;br&gt;&amp;nbsp; - image: habib80246/server&lt;br&gt;&amp;nbsp; &amp;nbsp; name: server&lt;br&gt;&amp;nbsp; &amp;nbsp; ports:&lt;br&gt;&amp;nbsp; &amp;nbsp; - containerPort: 3000&lt;/b&gt;&lt;/i&gt;&lt;/font&gt;&lt;/div&gt;" style="text;verticalAlign=middle;whiteSpace=wrap;html=1;" vertex="1" parent="1">
          <mxGeometry x="-110" y="70" width="280" height="320" as="geometry" />
        </mxCell>
        <mxCell id="9xgWKT3Bm4Sd7fR4F6-5-2" value="&lt;font style=&quot;font-size: 18px;&quot;&gt;Specifies the API version of Kubernetes being used.&lt;/font&gt;" style="text;html=1;align=center;verticalAlign=middle;whiteSpace=wrap;rounded=0;" vertex="1" parent="1">
          <mxGeometry x="25" y="73" width="450" height="30" as="geometry" />
        </mxCell>
        <mxCell id="9xgWKT3Bm4Sd7fR4F6-5-3" value="&lt;font style=&quot;font-size: 18px;&quot;&gt;&lt;br&gt;&lt;span style=&quot;forced-color-adjust: none; color: rgb(0, 0, 0); font-family: Helvetica; font-style: normal; font-variant-ligatures: normal; font-variant-caps: normal; font-weight: 400; letter-spacing: normal; orphans: 2; text-align: center; text-indent: 0px; text-transform: none; widows: 2; word-spacing: 0px; -webkit-text-stroke-width: 0px; white-space: normal; background-color: initial; text-decoration-thickness: initial; text-decoration-style: initial; text-decoration-color: initial;&quot;&gt;Defines the type of Kubernetes object being created. In this case, it&#39;s a&lt;span&gt;&amp;nbsp;&lt;/span&gt;&lt;/span&gt;&lt;strong style=&quot;forced-color-adjust: none; color: rgb(0, 0, 0); font-family: Helvetica; font-style: normal; font-variant-ligatures: normal; font-variant-caps: normal; letter-spacing: normal; orphans: 2; text-align: center; text-indent: 0px; text-transform: none; widows: 2; word-spacing: 0px; -webkit-text-stroke-width: 0px; white-space: normal; background-color: initial; text-decoration-thickness: initial; text-decoration-style: initial; text-decoration-color: initial;&quot; data-end=&quot;417&quot; data-start=&quot;410&quot;&gt;Pod&lt;/strong&gt;&lt;span style=&quot;forced-color-adjust: none; color: rgb(0, 0, 0); font-family: Helvetica; font-style: normal; font-variant-ligatures: normal; font-variant-caps: normal; font-weight: 400; letter-spacing: normal; orphans: 2; text-align: center; text-indent: 0px; text-transform: none; widows: 2; word-spacing: 0px; -webkit-text-stroke-width: 0px; white-space: normal; background-color: initial; text-decoration-thickness: initial; text-decoration-style: initial; text-decoration-color: initial;&quot;&gt;.&lt;/span&gt;&lt;br&gt;&lt;/font&gt;" style="text;html=1;align=center;verticalAlign=middle;whiteSpace=wrap;rounded=0;" vertex="1" parent="1">
          <mxGeometry x="-5" y="114" width="620" height="20" as="geometry" />
        </mxCell>
        <mxCell id="9xgWKT3Bm4Sd7fR4F6-5-4" value="&lt;font style=&quot;font-size: 18px;&quot;&gt;Contains metadata (like the name) for the Pod.&lt;/font&gt;" style="text;whiteSpace=wrap;html=1;" vertex="1" parent="1">
          <mxGeometry y="167" width="380" height="40" as="geometry" />
        </mxCell>
        <mxCell id="9xgWKT3Bm4Sd7fR4F6-5-5" value="&lt;font style=&quot;font-size: 18px;&quot;&gt;The name of this Pod&lt;/font&gt;" style="text;whiteSpace=wrap;html=1;" vertex="1" parent="1">
          <mxGeometry x="148" y="194" width="200" height="40" as="geometry" />
        </mxCell>
        <mxCell id="9xgWKT3Bm4Sd7fR4F6-5-6" value="&lt;font style=&quot;font-size: 18px;&quot;&gt;Defines the specification/configuration of the Pod.&lt;/font&gt;" style="text;whiteSpace=wrap;html=1;" vertex="1" parent="1">
          <mxGeometry x="200" y="310" width="400" height="40" as="geometry" />
        </mxCell>
        <mxCell id="9xgWKT3Bm4Sd7fR4F6-5-7" value="" style="shape=curlyBracket;whiteSpace=wrap;html=1;rounded=1;flipH=1;labelPosition=right;verticalLabelPosition=middle;align=left;verticalAlign=middle;" vertex="1" parent="1">
          <mxGeometry x="160" y="250" width="40" height="150" as="geometry" />
        </mxCell>
      </root>
    </mxGraphModel>
  </diagram>
  <diagram id="LX3UDYbYZGiHbH_mK0Ol" name="Page-2">
    <mxGraphModel dx="794" dy="494" grid="1" gridSize="10" guides="1" tooltips="1" connect="1" arrows="1" fold="1" page="1" pageScale="1" pageWidth="850" pageHeight="1100" math="0" shadow="0">
      <root>
        <mxCell id="0" />
        <mxCell id="1" parent="0" />
        <UserObject label="&lt;table style=&quot;font-size: 18px;&quot; data-start=&quot;384&quot; data-end=&quot;782&quot;&gt;&lt;thead data-start=&quot;384&quot; data-end=&quot;441&quot;&gt;&lt;tr data-start=&quot;384&quot; data-end=&quot;441&quot;&gt;&lt;th data-start=&quot;384&quot; data-end=&quot;411&quot;&gt;&lt;strong data-start=&quot;386&quot; data-end=&quot;410&quot;&gt;&lt;font style=&quot;font-size: 18px;&quot;&gt;API Version (Bucket)&lt;/font&gt;&lt;/strong&gt;&lt;/th&gt;&lt;th data-start=&quot;411&quot; data-end=&quot;441&quot;&gt;&lt;strong data-start=&quot;413&quot; data-end=&quot;439&quot;&gt;&lt;font style=&quot;font-size: 18px;&quot;&gt;&amp;nbsp; &amp;nbsp; Objects Inside (Kinds)&lt;/font&gt;&lt;/strong&gt;&lt;/th&gt;&lt;/tr&gt;&lt;/thead&gt;&lt;tbody data-start=&quot;500&quot; data-end=&quot;782&quot;&gt;&lt;tr data-start=&quot;500&quot; data-end=&quot;561&quot;&gt;&lt;td&gt;&lt;font style=&quot;font-size: 18px;&quot;&gt;&lt;code data-start=&quot;502&quot; data-end=&quot;506&quot;&gt;v1&lt;/code&gt; (Core API)&lt;/font&gt;&lt;/td&gt;&lt;td&gt;&lt;font style=&quot;font-size: 18px;&quot;&gt;&lt;code data-start=&quot;520&quot; data-end=&quot;525&quot;&gt;&amp;nbsp; Pod&lt;/code&gt;, &lt;code data-start=&quot;527&quot; data-end=&quot;536&quot;&gt;Service&lt;/code&gt;, &lt;code data-start=&quot;538&quot; data-end=&quot;549&quot;&gt;ConfigMap&lt;/code&gt;, &lt;code data-start=&quot;551&quot; data-end=&quot;559&quot;&gt;Secret&lt;/code&gt;&lt;/font&gt;&lt;/td&gt;&lt;/tr&gt;&lt;tr data-start=&quot;562&quot; data-end=&quot;618&quot;&gt;&lt;td&gt;&lt;code data-start=&quot;564&quot; data-end=&quot;573&quot;&gt;&lt;font style=&quot;font-size: 18px;&quot;&gt;apps/v1&lt;/font&gt;&lt;/code&gt;&lt;/td&gt;&lt;td&gt;&lt;font style=&quot;font-size: 18px;&quot;&gt;&lt;code data-start=&quot;576&quot; data-end=&quot;588&quot;&gt;&amp;nbsp; Deployment&lt;/code&gt;, &lt;code data-start=&quot;590&quot; data-end=&quot;603&quot;&gt;StatefulSet&lt;/code&gt;, &lt;code data-start=&quot;605&quot; data-end=&quot;616&quot;&gt;DaemonSet&lt;/code&gt;&lt;/font&gt;&lt;/td&gt;&lt;/tr&gt;&lt;tr data-start=&quot;619&quot; data-end=&quot;652&quot;&gt;&lt;td&gt;&lt;code data-start=&quot;621&quot; data-end=&quot;631&quot;&gt;&lt;font style=&quot;font-size: 18px;&quot;&gt;batch/v1&lt;/font&gt;&lt;/code&gt;&lt;/td&gt;&lt;td&gt;&lt;font style=&quot;font-size: 18px;&quot;&gt;&lt;code data-start=&quot;634&quot; data-end=&quot;639&quot;&gt;&amp;nbsp; Job&lt;/code&gt;, &lt;code data-start=&quot;641&quot; data-end=&quot;650&quot;&gt;CronJob&lt;/code&gt;&lt;/font&gt;&lt;/td&gt;&lt;/tr&gt;&lt;tr data-start=&quot;653&quot; data-end=&quot;708&quot;&gt;&lt;td&gt;&lt;code data-start=&quot;655&quot; data-end=&quot;677&quot;&gt;&lt;font style=&quot;font-size: 18px;&quot;&gt;networking.k8s.io/v1&lt;/font&gt;&lt;/code&gt;&lt;/td&gt;&lt;td&gt;&lt;font style=&quot;font-size: 18px;&quot;&gt;&lt;code data-start=&quot;680&quot; data-end=&quot;689&quot;&gt;&amp;nbsp; Ingress&lt;/code&gt;, &lt;code data-start=&quot;691&quot; data-end=&quot;706&quot;&gt;NetworkPolicy&lt;/code&gt;&lt;/font&gt;&lt;/td&gt;&lt;/tr&gt;&lt;tr data-start=&quot;709&quot; data-end=&quot;782&quot;&gt;&lt;td&gt;&lt;code data-start=&quot;711&quot; data-end=&quot;741&quot;&gt;&lt;font style=&quot;font-size: 18px;&quot;&gt;rbac.authorization.k8s.io/v1&lt;/font&gt;&lt;/code&gt;&lt;/td&gt;&lt;td&gt;&lt;font style=&quot;font-size: 18px;&quot;&gt;&lt;code data-start=&quot;744&quot; data-end=&quot;750&quot;&gt;&amp;nbsp; Role&lt;/code&gt;, &lt;code data-start=&quot;752&quot; data-end=&quot;765&quot;&gt;ClusterRole&lt;/code&gt;, &lt;code data-start=&quot;767&quot; data-end=&quot;780&quot;&gt;RoleBinding&lt;/code&gt;&lt;/font&gt;&lt;/td&gt;&lt;/tr&gt;&lt;/tbody&gt;&lt;/table&gt;" link="&lt;table data-start=&quot;384&quot; data-end=&quot;782&quot;&gt;&lt;thead data-start=&quot;384&quot; data-end=&quot;441&quot;&gt;&lt;tr data-start=&quot;384&quot; data-end=&quot;441&quot;&gt;&lt;th data-start=&quot;384&quot; data-end=&quot;411&quot;&gt;&lt;strong data-start=&quot;386&quot; data-end=&quot;410&quot;&gt;API Version (Bucket)&lt;/strong&gt;&lt;/th&gt;&lt;th data-start=&quot;411&quot; data-end=&quot;441&quot;&gt;&lt;strong data-start=&quot;413&quot; data-end=&quot;439&quot;&gt;Objects Inside (Kinds)&lt;/strong&gt;&lt;/th&gt;&lt;/tr&gt;&lt;/thead&gt;&lt;tbody data-start=&quot;500&quot; data-end=&quot;782&quot;&gt;&lt;tr data-start=&quot;500&quot; data-end=&quot;561&quot;&gt;&lt;td&gt;&lt;code data-start=&quot;502&quot; data-end=&quot;506&quot;&gt;v1&lt;/code&gt; (Core API)&lt;/td&gt;&lt;td&gt;&lt;code data-start=&quot;520&quot; data-end=&quot;525&quot;&gt;Pod&lt;/code&gt;, &lt;code data-start=&quot;527&quot; data-end=&quot;536&quot;&gt;Service&lt;/code&gt;, &lt;code data-start=&quot;538&quot; data-end=&quot;549&quot;&gt;ConfigMap&lt;/code&gt;, &lt;code data-start=&quot;551&quot; data-end=&quot;559&quot;&gt;Secret&lt;/code&gt;&lt;/td&gt;&lt;/tr&gt;&lt;tr data-start=&quot;562&quot; data-end=&quot;618&quot;&gt;&lt;td&gt;&lt;code data-start=&quot;564&quot; data-end=&quot;573&quot;&gt;apps/v1&lt;/code&gt;&lt;/td&gt;&lt;td&gt;&lt;code data-start=&quot;576&quot; data-end=&quot;588&quot;&gt;Deployment&lt;/code&gt;, &lt;code data-start=&quot;590&quot; data-end=&quot;603&quot;&gt;StatefulSet&lt;/code&gt;, &lt;code data-start=&quot;605&quot; data-end=&quot;616&quot;&gt;DaemonSet&lt;/code&gt;&lt;/td&gt;&lt;/tr&gt;&lt;tr data-start=&quot;619&quot; data-end=&quot;652&quot;&gt;&lt;td&gt;&lt;code data-start=&quot;621&quot; data-end=&quot;631&quot;&gt;batch/v1&lt;/code&gt;&lt;/td&gt;&lt;td&gt;&lt;code data-start=&quot;634&quot; data-end=&quot;639&quot;&gt;Job&lt;/code&gt;, &lt;code data-start=&quot;641&quot; data-end=&quot;650&quot;&gt;CronJob&lt;/code&gt;&lt;/td&gt;&lt;/tr&gt;&lt;tr data-start=&quot;653&quot; data-end=&quot;708&quot;&gt;&lt;td&gt;&lt;code data-start=&quot;655&quot; data-end=&quot;677&quot;&gt;networking.k8s.io/v1&lt;/code&gt;&lt;/td&gt;&lt;td&gt;&lt;code data-start=&quot;680&quot; data-end=&quot;689&quot;&gt;Ingress&lt;/code&gt;, &lt;code data-start=&quot;691&quot; data-end=&quot;706&quot;&gt;NetworkPolicy&lt;/code&gt;&lt;/td&gt;&lt;/tr&gt;&lt;tr data-start=&quot;709&quot; data-end=&quot;782&quot;&gt;&lt;td&gt;&lt;code data-start=&quot;711&quot; data-end=&quot;741&quot;&gt;rbac.authorization.k8s.io/v1&lt;/code&gt;&lt;/td&gt;&lt;td&gt;&lt;code data-start=&quot;744&quot; data-end=&quot;750&quot;&gt;Role&lt;/code&gt;, &lt;code data-start=&quot;752&quot; data-end=&quot;765&quot;&gt;ClusterRole&lt;/code&gt;, &lt;code data-start=&quot;767&quot; data-end=&quot;780&quot;&gt;RoleBinding&lt;/code&gt;&lt;/td&gt;&lt;/tr&gt;&lt;/tbody&gt;&lt;/table&gt;" id="SE1Fuj481cCdVJflLpL9-2">
          <mxCell style="text;whiteSpace=wrap;html=1;" vertex="1" parent="1">
            <mxGeometry x="110" y="260" width="720" height="210" as="geometry" />
          </mxCell>
        </UserObject>
        <mxCell id="SE1Fuj481cCdVJflLpL9-5" value="&lt;font style=&quot;font-size: 18px;&quot;&gt;Example of Different API Buckets&lt;/font&gt;" style="rounded=0;whiteSpace=wrap;html=1;fillColor=#dae8fc;strokeColor=#6c8ebf;" vertex="1" parent="1">
          <mxGeometry x="120" y="140" width="380" height="60" as="geometry" />
        </mxCell>
        <mxCell id="SE1Fuj481cCdVJflLpL9-6" value="&lt;font style=&quot;font-size: 18px;&quot;&gt;Check All API Resources&lt;/font&gt;" style="rounded=0;whiteSpace=wrap;html=1;fillColor=#dae8fc;strokeColor=#6c8ebf;" vertex="1" parent="1">
          <mxGeometry x="100" y="550" width="380" height="60" as="geometry" />
        </mxCell>
        <mxCell id="hbVdg5RFuyuYDsyucYDR-1" value="" style="shape=table;startSize=0;container=1;collapsible=0;childLayout=tableLayout;fontSize=16;" vertex="1" parent="1">
          <mxGeometry x="170" y="650" width="210" height="40" as="geometry" />
        </mxCell>
        <mxCell id="hbVdg5RFuyuYDsyucYDR-2" value="" style="shape=tableRow;horizontal=0;startSize=0;swimlaneHead=0;swimlaneBody=0;strokeColor=inherit;top=0;left=0;bottom=0;right=0;collapsible=0;dropTarget=0;fillColor=none;points=[[0,0.5],[1,0.5]];portConstraint=eastwest;fontSize=16;" vertex="1" parent="hbVdg5RFuyuYDsyucYDR-1">
          <mxGeometry width="210" height="40" as="geometry" />
        </mxCell>
        <mxCell id="hbVdg5RFuyuYDsyucYDR-3" value="&lt;font style=&quot;font-size: 18px;&quot;&gt;kubectl&lt;/font&gt;" style="shape=partialRectangle;html=1;whiteSpace=wrap;connectable=0;strokeColor=inherit;overflow=hidden;fillColor=none;top=0;left=0;bottom=0;right=0;pointerEvents=1;fontSize=16;" vertex="1" parent="hbVdg5RFuyuYDsyucYDR-2">
          <mxGeometry width="75" height="40" as="geometry">
            <mxRectangle width="75" height="40" as="alternateBounds" />
          </mxGeometry>
        </mxCell>
        <mxCell id="hbVdg5RFuyuYDsyucYDR-4" value="&lt;font style=&quot;font-size: 18px;&quot;&gt;api-resources&lt;/font&gt;" style="shape=partialRectangle;html=1;whiteSpace=wrap;connectable=0;strokeColor=inherit;overflow=hidden;fillColor=none;top=0;left=0;bottom=0;right=0;pointerEvents=1;fontSize=16;" vertex="1" parent="hbVdg5RFuyuYDsyucYDR-2">
          <mxGeometry x="75" width="135" height="40" as="geometry">
            <mxRectangle width="135" height="40" as="alternateBounds" />
          </mxGeometry>
        </mxCell>
      </root>
    </mxGraphModel>
  </diagram>
</mxfile>
